<svg xmlns="http://www.w3.org/2000/svg" viewBox="0 0 82 145">
  <defs>
    <linearGradient id="stem" x1="0" x2="1" y1="0" y2="1">
      <stop offset="0" stop-color="#82c748"/>
      <stop offset="1" stop-color="#2c7b31"/>
    </linearGradient>
    <linearGradient id="petal" x1="0" x2="1" y1="0" y2="1">
      <stop offset="0" stop-color="#ffe98f"/>
      <stop offset="0.7" stop-color="#ffc857"/>
      <stop offset="1" stop-color="#e6922e"/>
    </linearGradient>
  </defs>
  <path d="M41 139 C39 111 44 91 41 61" fill="none" stroke="url(#stem)" stroke-width="4" stroke-linecap="round"/>
  <path d="M39 112 C27 94 17 84 13 66 C30 72 41 91 42 114 Z" fill="#5ca43a"/>
  <path d="M43 114 C55 94 64 84 68 66 C52 72 42 91 41 116 Z" fill="#3d8c34"/>
  <g transform="translate(41 47)">
    <ellipse rx="10" ry="21" fill="url(#petal)" transform="rotate(0) translate(0 -12)"/>
    <ellipse rx="10" ry="21" fill="url(#petal)" transform="rotate(60) translate(0 -12)"/>
    <ellipse rx="10" ry="21" fill="url(#petal)" transform="rotate(120) translate(0 -12)"/>
    <ellipse rx="10" ry="21" fill="url(#petal)" transform="rotate(180) translate(0 -12)"/>
    <ellipse rx="10" ry="21" fill="url(#petal)" transform="rotate(240) translate(0 -12)"/>
    <ellipse rx="10" ry="21" fill="url(#petal)" transform="rotate(300) translate(0 -12)"/>
    <circle r="8" fill="#9b6922"/>
    <circle r="4" fill="#f8d46a"/>
  </g>
</svg>
