<svg xmlns="http://www.w3.org/2000/svg" viewBox="0 0 74 170">
  <defs>
    <linearGradient id="stem" x1="0" x2="1" y1="0" y2="1">
      <stop offset="0" stop-color="#8bcf62"/>
      <stop offset="1" stop-color="#2d7d35"/>
    </linearGradient>
    <linearGradient id="bloom" x1="0" x2="1" y1="0" y2="1">
      <stop offset="0" stop-color="#d7b5ff"/>
      <stop offset="1" stop-color="#8b54d8"/>
    </linearGradient>
  </defs>
  <path d="M37 164 C34 125 41 92 37 31" fill="none" stroke="url(#stem)" stroke-width="4" stroke-linecap="round"/>
  <path d="M35 128 C22 108 13 94 9 74 C27 82 36 104 38 130 Z" fill="#579e3d"/>
  <path d="M40 132 C53 111 62 96 66 76 C49 84 39 106 37 134 Z" fill="#3f8e35"/>
  <g fill="url(#bloom)">
    <ellipse cx="34" cy="28" rx="8" ry="12" transform="rotate(-22 34 28)"/>
    <ellipse cx="43" cy="43" rx="8" ry="12" transform="rotate(24 43 43)"/>
    <ellipse cx="31" cy="58" rx="8" ry="12" transform="rotate(-25 31 58)"/>
    <ellipse cx="44" cy="74" rx="8" ry="12" transform="rotate(24 44 74)"/>
    <ellipse cx="32" cy="90" rx="8" ry="12" transform="rotate(-22 32 90)"/>
  </g>
</svg>
