<svg xmlns="http://www.w3.org/2000/svg" viewBox="0 0 80 150">
  <defs>
    <linearGradient id="stem" x1="0" x2="1" y1="0" y2="1">
      <stop offset="0" stop-color="#84c64c"/>
      <stop offset="1" stop-color="#2b7930"/>
    </linearGradient>
    <linearGradient id="bloom" x1="0" x2="1" y1="0" y2="1">
      <stop offset="0" stop-color="#ffc1d8"/>
      <stop offset="0.6" stop-color="#ff6da7"/>
      <stop offset="1" stop-color="#ca1b67"/>
    </linearGradient>
  </defs>
  <path d="M40 144 C37 114 43 90 40 62" fill="none" stroke="url(#stem)" stroke-width="4" stroke-linecap="round"/>
  <path d="M38 111 C25 94 15 82 12 65 C28 70 39 89 41 113 Z" fill="#62ad3e"/>
  <path d="M42 116 C54 96 64 84 68 66 C51 72 41 91 40 118 Z" fill="#3a9033"/>
  <g transform="translate(40 48)">
    <ellipse rx="11" ry="22" fill="url(#bloom)" transform="rotate(0) translate(0 -14)"/>
    <ellipse rx="11" ry="22" fill="url(#bloom)" transform="rotate(72) translate(0 -14)"/>
    <ellipse rx="11" ry="22" fill="url(#bloom)" transform="rotate(144) translate(0 -14)"/>
    <ellipse rx="11" ry="22" fill="url(#bloom)" transform="rotate(216) translate(0 -14)"/>
    <ellipse rx="11" ry="22" fill="url(#bloom)" transform="rotate(288) translate(0 -14)"/>
    <circle r="7" fill="#ffd36f"/>
  </g>
</svg>
